/* XPM */
static char *aee6395113394934cea55ab0ac6e8ceeVh2uRlOUHBnqxqGB[] = {
/* columns rows colors chars-per-pixel */
"64 64 94 2 ",
"   c None",
".  c black",
"X  c #010000",
"o  c #000100",
"O  c #010100",
"+  c #000001",
"@  c #010001",
"#  c #000101",
"$  c #010101",
"%  c #1E2A30",
"&  c #1F2A30",
"*  c #1F2B30",
"=  c #1E2A31",
"-  c #1F2A31",
";  c #202E34",
":  c #212E34",
">  c #202E35",
",  c #212E35",
"<  c #202F35",
"1  c #212F35",
"2  c #303334",
"3  c #313334",
"4  c #303235",
"5  c #313235",
"6  c #303335",
"7  c #313335",
"8  c #3C3C3E",
"9  c #3D3C3E",
"0  c #3D3D3E",
"q  c #2A3C44",
"w  c #2B3C44",
"e  c #2A3D44",
"r  c #2B3D44",
"t  c #38525F",
"y  c #38535F",
"u  c #474044",
"i  c #464144",
"p  c #474144",
"a  c #464145",
"s  c #5A5A5E",
"d  c #5B5A5E",
"f  c #5A5B5E",
"g  c #5B5B5E",
"h  c #5A5A5F",
"j  c #5B5A5F",
"k  c #5A5B5F",
"l  c #5B5B5F",
"z  c #685E50",
"x  c #685F50",
"c  c #685E51",
"v  c #685F51",
"b  c #5A5A60",
"n  c #5B5A60",
"m  c #5B5B60",
"M  c #426270",
"N  c #436270",
"B  c #426370",
"V  c #426271",
"C  c #7C7C80",
"Z  c #7D7C80",
"A  c #7C7D80",
"S  c #7D7D80",
"D  c #7C7C81",
"F  c #7D7C81",
"G  c #7C7D81",
"H  c #7D7D81",
"J  c #BEAC90",
"K  c #BFAC90",
"L  c #BEAD90",
"P  c #BEAC91",
"I  c #BFAC91",
"U  c #BEAD91",
"Y  c #BFAD91",
"T  c #A4A4AC",
"R  c #A5A4AC",
"E  c #A4A5AC",
"W  c #A5A5AC",
"Q  c #A4A4AD",
"!  c #A4A5AD",
"~  c #A5A5AD",
"^  c #D8C2A2",
"/  c #D9C2A2",
"(  c #D8C3A2",
")  c #D9C3A2",
"_  c #D8C2A3",
"`  c #D9C2A3",
"'  c #D8C3A3",
"]  c #D9C3A3",
"[  c #C0C7C0",
"{  c #C1C7C0",
"}  c #C0C6C1",
"|  c #C1C6C1",
" . c #C0C7C1",
".. c #C1C7C1",
/* pixels */
"        X X X X X X # # X X X X         X X X X # # # # X X X X X X # # # # # # # # # #                                         ",
"        X X X X # # # # X X X #         X X X X # # O # X X X X X X # # # # # # X # # X                                         ",
"        X X X X # # # # X X X X         X # X X O O O # X X X X # # # # # # # # # # X X                                         ",
"        X X X X # # # # X # X X         X X X X # O # X X X X X # # # # # # # # # # # X                                         ",
"X X X X - < > > y y y y X X X X # # # X F F F F 3 7 5 5 ~ ~ ! ! 6 6 6 6 W W W W 7 7 7 5 X X X X                                 ",
"X X X X < < > < y y y y X X X X # # # # F F F F 5 7 5 5 ~ ~ ! ! 2 6 6 6 W W W W 7 7 7 7 X X X X                                 ",
"X X X X < < < > y y y y X X X X # # X X F F F F 5 5 7 5 ! ! ! ! 6 6 6 6 W W W W 7 7 7 7 X X X X                                 ",
"X X X X < < < < y y y y X X X X X X X X F F H H 5 5 5 5 ! ! ! ! 6 6 7 7 W W W W 7 7 7 7 X X X X                                 ",
"# # X X > < < < X X X X X X X X h h h h C D H H 6 6 7 7 F F F D 7 7 7 7 E E T E 5 5 5 5 X X X X                                 ",
"@ # # X > < < < X X X X X X X X h h h h D D H G 6 6 6 7 F F F D 7 7 7 7 E E E T 5 5 5 5 X X X X                                 ",
"@ @ X X > > < < X X X X X X # X h h g b G G G H 6 7 5 7 F F D D 7 2 7 7 E E E E 5 5 5 5 X X X X                                 ",
"@ @ X X > > < < X X X X X X X X h g b g G G G G 6 6 5 5 H H D D 7 7 7 6 E E E E 5 5 5 5 X X X X                                 ",
"X X X X # # # # # # # X X # X X X X X X b g b g G F F F D D D D E E T T E E E E T E E E X X X X         @ # @ @                 ",
"X X X X # # # # # # # X X X X X X X X X g b g b G G F F D D D D E E T T ~ E E T E E E E X X X X         # # @ @                 ",
"X X X X # # # # # # # X X X # X X X X X b g b g F F F F D D F F T T T T E E E E E E E E X X X X         # # X X                 ",
"X # X X # # # # # # X X X X X # X X X X h b b b F F F F D F F F T T T T E E E E E E E E X X X X         # X X X                 ",
"X X # #         # @ @ @ G G H H m m j j X X X X # # # # # # # # X X X X # # # # # # # # X X X X @ @ @ @ ........X X X X         ",
"X X # #         # @ @ @ G G H v m m l l X X X X # # # # X # # # X X X X # # # X # # # # X X X X @ @ @ @ ....| ..X X X X         ",
"X # # #         @ @ # # G T m T m l l l X X X X # # # # # # # # X X X X # # X X # # X # X X X X @ @ @ @ | .. . .X X X X         ",
"# # # #         @ # # # G m T m m m l l X X X X X # # # # # # # X X X X # # X X # # X X X X X X @ @ @ @ |  . . .X X X X         ",
"                # # # # b g b g m m T m ' _ _ _ ] ] ] ] ' ' ' ' ' ' ' ^ _ / / / X X X X         X X X X  . . . .X X X X         ",
"                # # # # g b g b T T v T ' ' _ _ ] ] ] ] ' ' ' ' ' ' ^ ^ / / / / X X X X         X X X X  . . . .X X X X         ",
"                # # X X b h b g m T T m _ _ _ _ ] ] ' ' ' ' ' ' ^ ' ) ^ / / _ _ # # # #         X X X X  . . . .X X X X         ",
"                X X X X h h g g T m m G _ _ _ _ ] ] ] ' ' ' ' _ ^ ^ ^ ^ _ _ _ _ X # # #         X X X X  . . . .X X X X         ",
"                # X X X l l l l v G G G _ _ _ _ c z z z U U L U ) ) / / z z z z X X X X         X X X X  . . . .X X X X         ",
"                X X X X l l l l T m H G ^ ^ _ _ c z z z U U U U ) ) / / z z x z X X X X         X X X X  . . . .X X X X         ",
"                X X X X l l j j H H H H ^ ^ ' ' x x x x L U L L ^ ^ ^ / x x x x X X X X         X X X X  . . . .X X X X         ",
"                X X X X l l j j G H H H ^ ^ ^ ' x x c x L L L J ) ^ ^ ^ z x x x X X X X         X X X X  . . . .X X X X         ",
"                X X X X G G F F l l l l ) ) ^ ^ x x x x L L P P L L Y L z z z z @ @ @ @         X X X X  . . . .# # # #         ",
"                X X X X G G F F l l l l _ _ ^ ) x x x x P P P P L L L L z z z z @ @ @ #         X X X X  . . . .# # # #         ",
"                X X X X G F F F l l l l _ ) ) ) x x x x P P P P U Y Y Y z z z z @ @ # #         X X X X  . .} } # # X X         ",
"                X X X # G F F F l l l l _ _ _ ) x x x x P P P P Y L K K z z z z # # # X         X X X X  . . .} # # X X         ",
"                        X X X X g d g g ( ( ( ( ' ' ) ) _ _ _ _ ' _ _ _ _ ] ] ] # # # #         # X X X  . ...} X X # #         ",
"                        X X X X g d g g ( ( ( ( ' ' ) _ _ _ _ _ _ _ _ _ _ ] / ] # # # #         X X X X  . . . .# X # #         ",
"                        X X X X g h g g ( ' ' ' ' ) _ _ _ _ _ _ _ _ _ _ ` ] ] ] # # X X         X X X X  . . . .# # # #         ",
"                        X X X X d d f f ( ( ' ) ' ' _ _ _ _ _ _ _ _ _ ' ` / / ] X X X X         X X X X  . . . .# # # #         ",
"        # # # # X X X X X X X X X X X X # # # # g g g g j j j j j j g j @ X X X @ @ @ X # # X # X X X X  . .....X X X X         ",
"        # # # # X X X X X X X X X X X X # # # # g g h h j j j j j j b j X X X X @ @ @ X # # # # X X X X  . .....X X X X         ",
"        # # X X X X X X X X X X # # # # X X X X d d h d b j g g j j g b # # X # @ @ O @ O O X X X X X X  .......# X X X         ",
"        # X X X X X X X X X X X # # # # X X X X d d d d g g b g j j g g # # # # @ @ @ @ O O X X X X X X  . .....X X X X         ",
"# # # # g g g f F F F F T R E E X X X X G G G G E ! E E E E E E G G H G E E E E X X X X X X X X M M M M N N N N B B V V X X X X ",
"# # # # g g f f F F F F ~ R E E X X X X G G F G E E E E E E E E G G H H E E E E X X X X X X X X M M M M N N N V V B V V X X X X ",
"# # # # f f f f F F F F E E E E X X X X F F F F E E ! ~ E E E E H H H H E E E E X X X X X X X X M M M M M M V V V V V V X X X X ",
"# # # # f f f f F F F F E E E E X X X X F F F F E ! E ~ E E E E H H H H E E E E X X X X X X X X M M M M M M V V V V V V X X X X ",
"        X X X X < > > ; # # # # # X X X j j j g j j j j E E E E X X # # W E E E X # # # * * % ; X X X X I I I I # # # #         ",
"        X X # # < < > > # # # # # X X X j j g g j j j j E E E E X X # # E E E E # # # # * * % % X X X X I I I P # # # #         ",
"        # # # # < < < < # O # # O O X X d g g d g b g g E E E E X # # # E E E E # # # # * * * * X X X X P I I I # # # #         ",
"        # # # # < < < < # # # # O O X X d d d d b g b g E E E W X # # # E E E E # # # X * * * * X X X X I I I U X # X X         ",
"X X X X # # # # # # X X X X X X # # # # X X X X X X # X # # # # T m F F # # # # p p p p X # # # = = = ; V V V V X X @ #         ",
"X X X X # # # # X X X X X X X X # # # # X X X X X X # # # # # # m T m F # # # X p p p p # # # # = = * * V V V V # # @ @         ",
"X X X X # # # # X X X X X X X X # # X X X X X X # # # # X # X X T v F F # # X X p p p p # # X X & & * * V V V V # X # @         ",
"X X X X # # # # X X X X X X X X # X X X X # X X # # # # X X X X F F F F # # X X p p p p # # X X & & & % V V V V # # # @         ",
"X X # # t 1 e e B B B B X X X X X X X X i i p p b n n n D D F F H H H H ! ! ! ! X # # #         X X @ @ X X X X                 ",
"X X # # t 6 e 1 B B B B X # X X X X X X i i p p n b n n D D F H H D H H ! ! ! ! X # O #         X X @ @ X X X X                 ",
"# # # X < < t t B B B B X X X X X X X X i i u p n n n n D F H F G G G G ~ ! ~ ~ O O O O         X # # @ X X # X                 ",
"# # # # 1 t < 1 B B B B X X X X X X X X i i u u n n n n F F F F G G G G ~ ~ ~ ~ O O O O         X X # # X X X X                 ",
"X X X X w w q r B B V V X # # # # # # # < < > > < 1 - 1 X X X X # # X X < < 1 1 X X X X                                         ",
"X X X X w w q r V B V V X X # # # # # # < < > > - < < 1 X X X X X X X X < 1 1 1 X X X X                                         ",
"X X X X w w r r V V V V # # # # # # X X < < < < < < < < X X X X X X X X , , 1 1 X X X X                                         ",
"X X X X w w r r V V V V # # # # # # X @ < < < < < < < - X X X X X X X X , , > , X X X X                                         ",
"        X # # # # # # #         @ @ @ @ 9 9 9 9 r 9 9 9 X X X X X X X X w 9 9 9 9 9 9 9 X X X X                                 ",
"        # # # # # # # X         @ @ @ @ 9 9 9 9 u 9 9 9 X X X X X X X @ u 9 9 9 9 9 9 9 X # X X                                 ",
"        # # # # # # X X         @ @ @ @ 9 9 9 9 9 9 9 9 X X X X X X @ @ 9 9 9 9 9 9 9 9 X X X X                                 ",
"        # # # X # # X X         @ @ @ @ 9 9 9 9 9 9 9 9 X X X X X X @ @ 9 9 9 9 9 9 9 w X X X X                                 "
};
