/* XPM */
static char *_db17af9f02a4986f69e067c32eb0280EOwy55T1FwKMBvnv[] = {
/* columns rows colors chars-per-pixel */
"64 64 60 1 ",
"  c None",
". c #201408",
"X c #211408",
"o c #201508",
"O c #211508",
"+ c #201409",
"@ c #211409",
"# c #201509",
"$ c #211509",
"% c #402608",
"& c #412608",
"* c #402708",
"= c #412708",
"- c #402609",
"; c #412609",
": c #402709",
"> c #412709",
", c #7C4C14",
"< c #7D4C14",
"1 c #7C4D14",
"2 c #7D4D14",
"3 c #7C4C15",
"4 c #7D4C15",
"5 c #7C4D15",
"6 c #7D4D15",
"7 c #664826",
"8 c #664926",
"9 c #674926",
"0 c #664827",
"q c #674827",
"w c #664927",
"e c #674927",
"r c #946C38",
"t c #956C38",
"y c #946D38",
"u c #956D38",
"i c #946C39",
"p c #956C39",
"a c #946D39",
"s c #956D39",
"d c #E4B444",
"f c #E5B444",
"g c #E4B544",
"h c #E5B544",
"j c #E4B445",
"k c #E5B445",
"l c #E4B545",
"z c #E5B545",
"x c #EED888",
"c c #EFD888",
"v c #EFD988",
"b c #EFD889",
"n c #EED989",
"m c #EFD989",
"M c #F6F6D8",
"N c #F7F6D8",
"B c #F6F7D8",
"V c #F6F6D9",
"C c #F7F6D9",
"Z c #F6F7D9",
/* pixels */
"                    #####$$$#$$$$OOOO+OO                        ",
"                    O##O#$$$$$$$OOOOOOOO                        ",
"                    ##$O$$$$O#++OOOOOOOO                        ",
"                    ##$+$$$$O$++OOOOOOOO                        ",
"            ++++$$$$>>>>ewweeeee8899>>>>$$$$                    ",
"            ++++$#$#:>>>wwwweeee8899>>>>+$$$                    ",
"            ++++O#++>>:>wwwweeee8999>>>>$$$$                    ",
"            +++++OO+->>:wwwweeee889e>>>>$$$+                    ",
"        +++$9999>>>>>>>>@@@@$$$+www0----$@@@                    ",
"        ++$$9999>>>>>>>>@@@@$$$+ww00=---@@@@                    ",
"        $$$$8899>>>>>>>>@@$$$$++0000----@@@@                    ",
"        $$$$8888>>>>>>>>@@$$$$++0000----@@@@                    ",
"        $$$$:---8888#OOO+O+O9www--&&++$$                        ",
"        @$$$::--8888#OOOOOoO00ww--&&$+$$                        ",
"        $$$$==&-88ee$$++ooooww00&&&&$$$$                        ",
"        $$@@===-888e$$++ooooww90&-&&$$$$                        ",
"            $$@X==>>ewew8888>>--#+++&&&-$$$$                    ",
"            +$@@==>>ewww8888:>--#+++&&&-$$$+                    ",
"            $@@@=;;>wwww88ee:::-##.+&%--$$++                    ",
"            $@@@=;>>wwww88ee::::##..%%--$$++                    ",
"            $$$$@@@@+$$$###$OOOO>&&&;;;;>---....                ",
"            $$O$@@@$++$$##$$OOOO>*&&;=;;>---....                ",
"            $$$$@@$$$$$$O#OOOOOO*&&*===-----..XX                ",
"            $$++@@$$+$$$OOOOOOO+&&&&===-----XXXX                ",
"        +++$&&&&ewweiiiiiiiiwww999wwwwww&&&&XXXX                ",
"        ++$$&&&&eewwiiiiiiiiwwwww9wwwwee;;&&XXXX                ",
"        $$$$&&--wwwwiirriiiiwww8wwwweeee=;--XXXX                ",
"        $$$$&&--wwwwrrrriiiiwww8wwwweewe=-=-XXXX                ",
"r,,,,,,,2255wwwwpppttttpprrrpptrrrrreewwwwww;;=;$$$$            ",
",,,,,,,,2255wwwwppttrrrrrrrrpptrprrreweewwww;;;=$$$$            ",
",,,,,,,,2555wwwwttttrrrtrrrrptttrrrreeeewwwq;;==$$$$            ",
",,,,,,,,2555wwwwptttrrrrrrrrptttrrppeeeewwwq;;==$$$$            ",
"3333cccc6644wwwwyyyypptprrttaaaarrrrppppw9ww--;;@$$$            ",
"3333cccb6644wwweyyyyappprrrtapaprrrrppaawwww--;;@$++            ",
"3333ccnb6644wwwwyyyypppprrptsspprrrrssaaww9w-==;##++            ",
"3333ccnn6622wwwwyyyypppprrppsspprrrrsapawwww===;#+++            ",
"333rZZZZ655500009wwwyyyyrrrrrrrrtttte8wweeee====O###            ",
"33,,ZZZZ655500009w00yyyyrrrrrrrrtttteeweeeee=&&=$$##            ",
",,,,ZZZZ555500qe0000yyyrrrrrrrrrtpttwwwwwew9==>=$$$O            ",
",,,,ZCZZ5555000ew000ayyyrrrprrrpttppwwwweee9==&&$$$+            ",
"O&&&cccb;;;;==>;wwww00w0wwwwwwww9wwwwwww33333333,,,r<<<<        ",
"&&&&ccbb;;=;==>>wwww0000wwwwwwww9wwwwwww33333533,,,3<<<<        ",
"&&&&bbbb;;;-=;=;ww9w0000wwwwwwwwwwwwwwww33333333,,3322,,        ",
"&&&&bbbb;;;-;;;;wwww0000wwwwwwwwww9w90we3333<<33,,3322,,        ",
"**==zhhh;;&&OO$$>==&3<<<5555444222333333kkddnnccxxxxdddd,,,,    ",
"*===zhhh==&&OOO$====23<<5555444255333333ddddccccxxxxdddd,,,,    ",
"*===ffhh==>>O#++===><<<<5544442253333333ddddccccccxcdddd,,,,    ",
"**>>ffff===>$$++====<<<<5554442233333333ddddccccccccdddd,,,r    ",
">>>>>>>---;;    ,,,,ddddxxxxvvvvjjjd5555jjjjkdkkffffdddd,,,,    ",
">:>>>>>>==;;    ,,,,ddddxxxxccvvjjjd5555jjjjkkkkffffdddd,,,,    ",
">>>>>>>-==;;    r,33ddddbbxccccnjjdd5555jjddkkkkffffdddd,,,,    ",
">>>>>->>==;;    3333ddddbccccccnjjdd5555jjddkdkkffffdddd,,,,    ",
"                3333ddddddddkkkkdddk,,,,jjjjMMMMNNMMddff;===    ",
"                3,33ddddddddkkkkdddd,,,,jjllMMMMNNMMfdff;==-    ",
"                3333dgggdkddkkkkdddd3,52llllMMCCNMMMffff;;--    ",
"                3333ddggddddkkkkdddd5555llllCCCCNMMMfdff;;--    ",
"                ----jjggCCCCMMVVjjff===;;;;;;;=;&&&====>        ",
"                ----hhggMCCCMMMCjjff==;;;;--;=;;&&&==>=>        ",
"                -->-hgggCCCCMMCCjfff;;;;;;==;;;;&&====>>        ",
"                ----hhggCCCCMMCZjfff;;;;;===;;;;=&====>-        ",
"                    ;=--*&&&--------                            ",
"                    ;==-**&&-------;                            ",
"                    ;;--&&&&------;;                            ",
"                    ;;--&&&&------;;                            "
};
