/* XPM */
static char *_b1bab758a684a16a6ab78b5358e2087LFhoBimpCRK6Tl42[] = {
/* columns rows colors chars-per-pixel */
"64 64 74 1 ",
"  c #121E32",
". c #131E32",
"X c #121F32",
"o c #131F32",
"O c #121E33",
"+ c #131E33",
"@ c #121F33",
"# c #131F33",
"$ c #253246",
"% c #243346",
"& c #253346",
"* c #243247",
"= c #253247",
"- c #243347",
"; c #253347",
": c #343E4E",
"> c #353E4E",
", c #353E4F",
"< c #3E4A5E",
"1 c #3F4A5E",
"2 c #3E4B5E",
"3 c #3F4B5E",
"4 c #3F4A5F",
"5 c #607A8A",
"6 c #617A8A",
"7 c #607B8A",
"8 c #607A8B",
"9 c #617A8B",
"0 c #6F8A9A",
"q c #6E8B9A",
"w c #6F8B9A",
"e c #6E8A9B",
"r c #6F8A9B",
"t c #6E8B9B",
"y c #6F8B9B",
"u c #879EB4",
"i c #869FB4",
"p c #879FB4",
"a c #879EB5",
"s c #869FB5",
"d c #879FB5",
"f c #A6C4D0",
"g c #A7C4D0",
"h c #A7C5D0",
"j c #A6C4D1",
"k c #A7C4D1",
"l c #A7C5D1",
"z c #ACCCDC",
"x c #ADCCDC",
"c c #ACCDDC",
"v c #ADCDDC",
"b c #ACCCDD",
"n c #ADCCDD",
"m c #ACCDDD",
"M c #ADCDDD",
"N c #D0D8F6",
"B c #D1D8F6",
"V c #D0D9F6",
"C c #D1D9F6",
"Z c #D0D8F7",
"A c #D1D8F7",
"S c #D0D9F7",
"D c #D1D9F7",
"F c #C0E6EE",
"G c #C0E6EF",
"H c #C1E6EF",
"J c #C0E7EF",
"K c #C1E7EF",
"L c #DDF8FA",
"P c #DCF9FA",
"I c #DDF9FA",
"U c #DDF8FB",
"Y c #DCF9FB",
"T c #DDF9FB",
/* pixels */
"NNNNDDDAAADDNNNNZZZZZZZZSSSSAAAZZZZZSASSSSSSSSAAASSSDDDDAAZZUUUU",
"NNNNDSAAAADDNNDDZZZZZZZZSSDSASAAZZZZSSSSSSSSSSASSSSSDDDDAAZZUUPP",
"NNNNSSDDANNNSNDVZZSSZAZZDDDDNSNNZZZZDDANSSSNSSSSSSSSDDADAZZZYYPY",
"NNNNDDDDANNNSNNNZAASNSZZDDDDNCNCSAZZDDDDSSSNSSSSSSSSDDDDAZZZYYYY",
"NNND&&--;;;;----%%%---==--;;;;&&====--==;;;*$$;;;;-;;;==----GJJJ",
"NNNN&&--;;;;----*;-----=--;;;;&&&==;--=---**$$$;*;--;;===---GJJJ",
"NSSN&&--;;;;;;-;;;;===---===;;&&&&;=====----==*;*---;;;===--GGJG",
"NSSS&&--;;;;;;;;;;;===----==;;&&&&;;====----==;;%---;;;===--GGGG",
"SSSD----..######o..#..####.#@OOO#oooXXX@@@@#########o###=;==KHHH",
"SSSD=--=#.######o##.....#####OO###ooXXXX@@######.###o###;;==KKFH",
"SSDD===*#.##++#########.#+######@@o@oXoo############oo##;===FFFF",
"SSDD==*=####++#########.++######@@@oooo@############.o#.;===FFFF",
"SAAA====############@@@@++++.OO.@@oooo####ooO###########;;*;FHHH",
"AAAA====###+##++####@@@@++@+.@OO#@oo..##################;;;;FFHH",
"AAAA====##########@@oo+@++@@..@@#ooo######o##.########.O;;;;HFHH",
"AAAA====##########@@oo@+@++@.@@@#ooo#@.#o@@##o##.####..O;;;;HHHH",
"SSAA;;*%####@.@@@@#######@##@@@@####...#@@@@uuppppppdddd&;==GGGG",
"SSAA;*-%######@+@@####..####o@@@####...##@@@upppppppppdd**=$GGGG",
"SSSA;---##OO#+++@@@#+#######@@@@#######@##@@uuspppppdddd*;;;GGGG",
"DDSS;---@@@O##++@@@@+###.###@@@@+#########@+suddppppdddd*;;;JGGG",
"SSSD;;;;OOOO#@############.#+++++++.@@#@@###xmmvvvmmssdd**==JJJJ",
"SSSD;;;;O+OO####.##.####...#++++++..@@@@##..xmvvxvmmdsdd*;*=JJHH",
"SSDD;;;;++##.###.#..####..+ ++++##..@@OO##.#xmxnvzzzdddd**==HHHH",
"SSDD;;;;+++@###@#...##.++++ ++++###.@@@###O#xxxnvzzzdddd**==HHHH",
"DDDD;;;&####++++..##@@@@#######+#######o#@##mmmmxxmmssuu****GGGG",
"DDDD;;;;####++++.#OOo#@###.##.##############mnmmxxmmsssp****GGHH",
"DDSD;;;;####++@@ooOO@@@###..##.#############mmmmxxxxssip****HHHH",
"SDDD;;;;####@@@@oooo@@#@#...################mmmmMMmmssii****HHHH",
"DDND--;;######@@oo o  ####....#.##..o###@@@@nnmmMMMMpppp--&&GHHH",
"DDDN--;;###.#.@+oooo  #@+#....#.o#..@###@@@@nmmmMMmMpppp-%%&GHHH",
"DDDD-;;;###++..+oooo OOO++++...Ooo..##o.@@##nnmmmmmmppis-%&&JJJJ",
"DDDD;;;;####++++ooooOOOo++++....oo..####@@+.nnmmmmmmppis%%&&JJJJ",
"AAAA;;==###############@5555777777777766===;MMmmmmmxpppu$$==JJJH",
"BAAA;;==###############.5555577577777766--==MMmmmmMxppuu$$==JJJJ",
"BBAA;;==########.#######5555555577776666----MmmmMMMMpppi====GGJG",
"NNSS====##########.#####5555555577776666----MmmmMMMMpppp====GFHH",
"NNZZ;;;;....####@@@@@.##wqttqqqqyy007777----zzznxxbbaapp;;**JGGJ",
"NZNN--;;.....###@@#@@O#.wqttqqqqy0007777----nzznMMbbaapp;;;*GGJJ",
"NNNN&&&;....##.#@@@@OO++ttttqwqqyy006777----zbnnMbbbdddp;;**GGJJ",
"DNNN&&&;....####@@@@@@@+ttttqqwqyy007777----bbnnMbnbdddd;;*;GHHJ",
"DDAA----....############r0000wwwyyyy5559;;%;nnnncvvvpppp;;;;HHHH",
"DDAA--==##..##########o#rr00wwwwyyyy5579;;**nnnncvvvpppp;;;;HFJF",
"DSSA&&==##..#######.ooooerttwwwwrryy5597;;**nnmmccvvpppp;;*;HHJJ",
"SSSS&&&;....########ooooetttwwwwrryy5997;;;*nmmmccvvpppp;;;;HJHJ",
"SSSS&&&&1111,,>>::,:&&%%ttrrwwwwr0yy9977%;--mmmmzzmmpppp==-=GFGG",
"SSSS&&&&1111,,>,::,:&&**ttrrwywyyyyy5577**--xxmmzzmmpppp=--=HHGG",
"SSZZ--&&4133,,,,::::****ttwwwwyyy0yy5777*%%%mmmmmmmmpppd==-=GGGG",
"SSSS----1333,,,,,:::*;**wwwwwwyyy0yy7777*%%%mmmmmmmmpppd==--GGGG",
"SSSS----334443332222%%--0000yyyy00009999%%;;mmmmmmmmssdd--;;HFFF",
"SSSS----334433<<2222&%--0000yyyy00007999%;;;mmmmmmnmdddd;-;;HFFF",
"SSSS--&&3334<<<<22<<&%%-0000yy0t00007759%;;;mmmmbbzzdddd;;;;FJJJ",
"SSSS&&&&3333<<<<<<<<*%--0000yyytww006695;;;;mxmmbzbbdddd;;;;FJJJ",
"SSNS%---<<<<<<<<1111&;;;yyttyyttwwww9955;;;;nnmnMmmbuudd===-HHHJ",
"NSSV----<<<<<<<<3311&;;;yyttyyttwwww9955;;;;nnnnmmmmuudd===-FFGF",
"NNNV----<<<<<<<<3333&&;;yyytyyyytwww9977;;;;mnxmmmmmssad&&--GGGG",
"NNVV----<3<<<<<<3333&&;;yyyyyyyyttww9997;;;;xmxmmmmmssad&&--GGGG",
"DNNN;;==;;;;;;;;-=;;;;;;;;;;;;;;--==--=--;;;;;-&&&&&-&&*;;&&KHHH",
"DNNN;;=-;;;;;;;;=-;;;;;;;;;;;;;=--==--==--;;;;--&--&-&&*;;&&KHHH",
"DNBN;;--;$*;%%;;----;;;;;;;;;;---===;;==--**;*%&&&&---;*;==;HHHH",
"DDCC;;--;;$$%%%;----;;;;;;;;;;---===;;==-&*;;;--%%&&--;;;;==HHHH",
"YTTThhhhggggggggkkkkhhjjkkkkhhhkgggghkkkkkkkffffjfffggggjfffLLUU",
"YYTLhhhhgggggggghkkkhhjjhkllhhhhggkghkggkkkkffffjfffggggffffLLLU",
"TTTLhhggggggggggkkkhhhjjllklhhkkggggggggkkjjffffffffggffffjjYYLL",
"TTTTggggggggggggkkkhhhjjllkkhhhkggggggggkhhfffffffffghhfffjjYYPP"
};
