/* XPM */
static char *_54b8abd4a3f448cea305aecf121c26fmlRSvGxXBjwD4Sgg[] = {
/* columns rows colors chars-per-pixel */
"64 64 71 1 ",
"  c #363E56",
". c #373E56",
"X c #363F56",
"o c #373F56",
"O c #363E57",
"+ c #373E57",
"@ c #363F57",
"# c #373F57",
"$ c #444C66",
"% c #444D66",
"& c #454D66",
"* c #444C67",
"= c #444D67",
"- c #445070",
"; c #455070",
": c #445170",
"> c #455170",
", c #445071",
"< c #455071",
"1 c #445171",
"2 c #4A587E",
"3 c #4A597E",
"4 c #4B597E",
"5 c #4B587F",
"6 c #4A597F",
"7 c #4B597F",
"8 c #8490A8",
"9 c #8590A8",
"0 c #8491A8",
"q c #8591A8",
"w c #8490A9",
"e c #8590A9",
"r c #8491A9",
"t c #8591A9",
"y c #8A98B2",
"u c #8B98B2",
"i c #8A99B2",
"p c #8B99B2",
"a c #8A98B3",
"s c #8B98B3",
"d c #8A99B3",
"f c #8B99B3",
"g c #96A6C2",
"h c #97A6C2",
"j c #96A7C2",
"k c #97A7C2",
"l c #96A6C3",
"z c #97A6C3",
"x c #96A7C3",
"c c #97A7C3",
"v c #B2BADA",
"b c #B3BADA",
"n c #B2BBDA",
"m c #B3BBDA",
"M c #B2BADB",
"N c #B3BADB",
"B c #B2BBDB",
"V c #B3BBDB",
"C c #BEC6E6",
"Z c #BEC7E6",
"A c #BEC6E7",
"S c #BFC6E7",
"D c #BEC7E7",
"F c #CED6F4",
"G c #CFD6F4",
"H c #CED7F4",
"J c #CFD7F4",
"K c #CED6F5",
"L c #CFD6F5",
"P c #CED7F5",
"I c #CFD7F5",
/* pixels */
">>>>nnnnFFIIFAAAVVvbJHIIFAAA-:--JJIIFAAAAAAAMVbbbbvvFFFIDDAA,:1>",
">>>>VVnnFFFIVACCVVvbJJIJVAAA:---JJIIVAAAAAAAVVbbbbvvFHFFDDAA,,>>",
">>>>VVVVFHHFZZCCVVBBJJJJCCAA--::JHJHAAAAAACCvvvbNNNNHHFFDAAA11>1",
">>>>VVVVFHHFZCCCBBBBJJJJCCAA-:::JHHHAAAACCCCvvvbNBNNFFFFDAAA1111",
"VVVVhhhhrrwwiiiyxxxxsssahhjj::::BBBByyssxxxghxxxllllllggIIII++@@",
"VVVVhhhhrwwwiiyyxxxxsssyhhjj::::BBBByyssxxgghhhxllllllggIIII++oo",
"VVVVhhhhrr8wyyyyxxllssyyhjjh::::BVMBaaaahxllhlkxllllllllIIIIooo+",
"VVVVhhhhrr88yyyyllllssyyjjjj::::VVMMaaaallllllkkllllllllIIIIoooo",
"PPPPlllliifppppp8888llxxffifooooVVVVxxxxdaiisfffhhhhDDDDxxhh:::>",
"PPPPlllliiffpppp8800hcxxiiiiooooVVVVllxxaaddssffxhhhDDDDhhhh::>>",
"PPPPllllffffuupu888qhhhxiiiiooooVVVVllllfsddssssxxlxDDDDhhhh>>>>",
"PPKKllllffffuuuu888qhhhxiiiiooooVVVVlllxfssfsssyxxllDDDDhhhh>>>>",
"DDDD8808gggghhhhxxjkffffwqq8XoooIIPP00rrffifkkhhhhhxxxxxrrr0++++",
"DDAA8808gggghhhhxxjjffffwq9wXXoXIIPP00rrffffkkhhhhjjxxxxrrr0++++",
"AVAA8888ghgghghhxxkkfffftt99XX@@IIIIrrrrffffkkkhkkjjxxclrr00++++",
"AFAA8888gggggggghhhksffft999X@@@IIIIrrrrifffkkkhkkkjxxclrr00++++",
"AACC8888suuujjgg88rrcxxxhhgg::11CmCCfffdhhhhuuuuq000jjjjjkggXXXX",
"CACC8898ssuujjgg88r0cxxxhhgg::11CHCCfffihhhhuuuuq800jjjjkkggXXXX",
"CCCC9999ssyyjjjh8000jjxxhhkj:::1CHmCffiihhkhuupurr00jjjjkhhhooXO",
"CCCC9999siiyjjjh8000jjjjjkkj:::1CmHZppiihhhkuupprrrrjjjxjhhhooXX",
"LLFFcccchhhhysyyxxxx80000000::>>CCCCiiiiggggssspddffqq00hhhh----",
"LPPFcccchhhhsyyyghxx88000000::>>CCCCiiiiggggssssddfsqq00hhhj-->-",
"PLFIllcchhkksyiyggxxrr000008::--CCCCiiddggggfsffdffs8800ggkk::>>",
"LLKKllllhhhkssiiggccrrrr0008::--CCCCiiitggggffffdffs8800ggxx::>>",
"++++88888qqqhhhhghxxq999ckkkooooHHGG88eettttcckkgggghhkkXXoo->>>",
"++O+8q8888qqkkhhghxh9999cckkooooGJGG88ee99ttcckkhgggjhhkXXoo--:>",
" OOOqqqqqq8qkkkkllxh998qhhkhXoXXGGGGeeee99qwckkkgggghhkkXXXX::::",
" OOOqqqqqqqqkkkklhhh888qhhlhXXXXGGGGeeeewwqwkkkkggggghkkXXXX-:::",
"----oooo-->>oooo++##++++664664245555+OOO++#+>>>>X@@@oooo>>>>6244",
"----oooo-->>oooo++##++++664444225555++OO++++>>>>@@XXoooo>>>>6244",
"----oooo->>>oooo+OOo+ooo666446625545OOOO++++>>>>#@XXoooo>>>>4444",
"----oooo>>>>ooooOO+++ooo666644225545OOOO+++@>>>>o#XXoooo>>--4444",
"AAAAIIIIIFFFVVVVDAAAFFFFZZZZoXXXFNAAGGGGNNNNAAZZCFmCHHFHFVSS$***",
"AAAZIIIIIFFFVVVVAAAAFFFFZZZZXXXXDDADGGGGNNNNAACZCCCCHHHHAASS$***",
"AAADIIIIJHFFVVVVAAADFFFFZZZZXX  DDDNGGGGbNmmACCCCCCCHHJJACCS$$**",
"AACZIHIJHHFFVVVVAAADPFFFCZZZXX  FNAFGGGGbmmbCCCCCCCCHJJJFVCS$$$$",
"AAAAwrrr8w8whhhx8888lhhlHHHJooooADmHsysssssullxcww80iippIIIG$$$$",
"AAAArrrr88wwhhxx8800llhhHHFHooooFCCCsssssssulxxcqq88iippGIIG$$$$",
"AAAArrrrrrwwhhkkr80rlllhIIFFo ooNCCCssssssssllll88q8iffpGGGG$$$$",
"DAAArrwrrrrwhkkk8rrrlllhFIIJooooADmHpssssssfclll8888ffppIGGG$$$*",
"IPPPxxxxdfffwwrrlllcDDDDggggXOooFIIIfffpjhhhrrrrssyyFDCCssuu;;;-",
"IKPPxxxxddfdrwrrllllDDAAgggg  ooFIIIssfpjjhhrrrrssyyVCCCssss;;-;",
"PPPPllllddddrrrrlllhCCAAxxhhXoooFFIFssffghhg0r00ysyyAACCssss----",
"PPPPllllddadrrrrllllCAAAhhhhXXooIFFFffffgggg0000syyyAACCssss----",
"::::XOOO::::44244442----oo++1111DDDDddfd88rtkkhhsssuhhhhhkkk;;;;",
"::::OO@O:1::44244446--:-XX++1111DDDDddffq8rwkkhhssuuhhhhhkkk;;>;",
":1::XX@@11::44444422::::+++X1:>1DDDDdfffqqwwkkkhuuuuhhhhhhkk>>>>",
"11::X@@@1:::33462422::::+++X::11DDDDddffqqwwkkhhuuuuhhhhghkk>>>>",
"BBBBHHGGGGFFCCCC>>>>FVAAFFFF::1:BBBnhhhxissshhgg8899kkhhuuii%%%%",
"BBVVHHGGGGFFCCZZ>>>>DCDCFFFF::::BBBnhhhksssshhgg8899kkhhuuii%%%%",
"vvVVHHFFGFGFZZZZ>>>>AAAAFFFF>>--mVnnxgkkssyshhgg9e99kkkkuiii%%%%",
"vvvVFFFFGGFFCZCZ>>>>AAAAFFFF>>--VVnnggxxffushhgg9e99kkkkuuii%%%%",
"FJHFhhggusssCCDF++o#AAAAlkxjXXooVVVBqqq0qqqqxxxgssffffppkkkk::-:",
"FFHJhhgguuusCCDN++ooAAAAhlhxXXoXVVVVqqq0qqq8xhxxssffffpfjkkk::-:",
"FJJJhlhguussDDDDO+..AADDhxxxXXXXVVVVrrrr9qqwhhllsfffffffjjkk>>--",
"FFJJhhlguussDCNFO...AADDhhxxXXXXVVVVrrr999wwllllffffffffjjkk>---",
"CCCC9999AFCChhhgoo##FFPP##oX4466FFPPllllsqqqkkclffddhhhh2433%%%%",
"CCCC9999AmCbhhggoX##FFFF###X4446FFFFllllqqqqxhclfffihhhh4433%%==",
"CCCC9988CmAFhhggoo++IIIF##XX4466IIIFhlllqqqqxxxlffdihhhh4433====",
"CCVF9988CFCChhgg+++OIIIF##XX6666IIIFhlllqqqqxxhlffdtgghh4433====",
"*,;-oooooXXX=:::+ooo#+##>>>>oXXX>>>>,------>====6666;;;;OOOX1:::",
",,--oooooXXX::::+ooo####>>>>XX@X>>>>,,------====6644;;;; OOX11::",
"----oo+oooXX::::+o++####>>>>XX@@>>11>>->,-::====6644;;-;oo@X::::",
":;;-oooooo  ::::++++####>>>>XXX+>>1>>>>>::::==&&6644;--;oo@@::1:"
};
