/* XPM */
static char *c1c399846043477cebce6bd9ff0b0b81Kc7K4y18CwoHIMij[] = {
/* columns rows colors chars-per-pixel */
"64 64 42 1 ",
"  c #6C5C42",
". c #6D5C42",
"X c #6C5D42",
"o c #6D5D42",
"O c #6C5C43",
"+ c #6D5C43",
"@ c #6C5D43",
"# c #6D5D43",
"$ c #786446",
"% c #796446",
"& c #796546",
"* c #786447",
"= c #796447",
"- c #786547",
"; c #796547",
": c #9D3426",
"> c #9D3526",
", c #9C3427",
"< c #9D3427",
"1 c #9C3527",
"2 c #9D3527",
"3 c #AA3E30",
"4 c #AB3E30",
"5 c #AA3E31",
"6 c #AB3E31",
"7 c #AA3F31",
"8 c #BC4A3C",
"9 c #BD4A3C",
"0 c #BC4B3C",
"q c #BD4B3C",
"w c #BC4A3D",
"e c #BD4A3D",
"r c #BC4B3D",
"t c #BD4B3D",
"y c #84725A",
"u c #85725A",
"i c #84735A",
"p c #85735A",
"a c #84725B",
"s c #85725B",
"d c #84735B",
"f c #85735B",
/* pixels */
"aaaaiiaa******--aauiiipppppp********iyyysffffiiao..o++++iiyyuuuu",
"aaaaiiaa******--aaiiiipppppp**$*****yyaaasfaiiiio.oo++++yiyuuuuu",
"aaaaiiii****----uaaappppppfi**$$****aaaassasiiiioooo++  aauuuyuu",
"aaaaiiiy****----upaapppppppp$$$$***$aaaaaaasiiifoooo+   aauuuuuu",
"0000aayy000q111100eeiiiiqq888888::::asss5555eeeeuyii000844449999",
"0000aauu0ttq112200eeiiiiqq898888:::>ssis5555weeeiiii900044449999",
"0000aaau00qq22220000iidiq9998888::>>ffii5555wwe0iiii990034339999",
"0000aaaur0tt22220000iidfq9998888::>>faii5555ww00iiii990044339999",
"3333iiii0155w088,,,,aadd444488889999iiii00000q00iiaa000099994:37",
"3333iiii3855ww88,,,,aadd444788889909iiii00000000iifat00099994977",
"3333iiyi3335qt00,,11dddd443388988800iiii0000qqqqiiaaq9tq99994444",
"33>0iiyy3333qtt0,,11dddd667398888880iiii0000qqqqiiii99tt99996444",
"$$$$    ++++aaaaaddd****====iiii  ....XXfiiiiippiiii==--iiii=***",
"$$$$..  ++.+aapaaadd****====iiii  ....  iiiiiippiiii===-iiii==**",
"$$$$......++ssppaaaa**=*====iiii ++..   iiiiiiipifii==--iiii*=**",
"$$$$......++asspaaaa**======iiii +++.   iiiiiiiiiaii----iiid*--*",
"44660ee09999yypp4444qqe9&&%%qq88eeew8800ppaaqee033449888yyfi9444",
"4444ee009999aapp4444qqe0$$%%qq98ewew8880paaaqee033449988ssff>444",
"4444990e99ewaaau4444eeee$$$$9999eeww8899psaa990077449999siia4444",
"4444899e99ewaaau4444qeee$$$$9999eeww8899fsaa990071049999iiaa6444",
">>>,99995555iiiiqqqqeeeefffi4444eeee3773ffff:::<00999999iiii0000",
"1>>,99995755iiiiqqqqeeeeaaii4444eeee3377ffff::::00999999iiii00ee",
">1,,99907777iiiiqqqqeee9aafs4444eewe8233iuaf::>>eq999999iiii88ee",
"11,,99997777iiiiqeeeeee0ssss6644eeee3>93ifff::>>ee999999iiii88we",
"ffffaaaa****$$$=psffaaauuuuuiiiiyyiiffffuuipiupiaaiiiiyyiiiiysss",
"ffffyyaa**$$$$==psffaaaauuuuiiiiayiiffiiuappiiiiaaaiiiyuiiiiysss",
"iiafyyii$$$$$$**iiffssssuuuuuiaaaaauiiiiaaaaiiiiaaiiiiyyiiiiffff",
"iiifyiii$*******diffssssuuuuuuuaaaaaifiiaaaaiiuiaaiiiiyyiiiiffff",
"0080iiii00889999ffifq9ee990000880e00$$$*eee9eeee,11>aaau00990000",
"0088iiii00889999ffif09ee09008888ee00$$**ee99e0ee,,>>aaaa000900tt",
"0888iiii00089999fiia000e00090808ee00****ee00eeee11>>aaii0899qq0q",
"0888iiii00889999ffii000000008808ee08****0000ee0011>>ayyi8899qqqq",
"::::aaii6444we00ppff:>>,666444440000====0080<<<<0ew8iiipq900,:::",
"::::addf6444wee0piia:>>,66644443000w===*0088<<<<0088iiii9900,,::",
"::::aaff6655ww00puaa::,,564444270eew$$*=0099<<<<8888iiiy9999:>:>",
":::>iiff6655ww00ppaa::>>66444438eeww&***0009<<<<8888iiiy9999>:::",
"iiyy=---==**iiiipppfoooo#+++$$$=iiiiafiiiiiifaff    ..  $$$$asff",
"iiii==--==**ddiippff..oo#+++$$$=fiifffiiiiiiffffOO@@..$X$$$$asii",
"iiii====****ffaaiiff.....+++&$$$ffffiiiiiiffffffOOO@.XX.$$$$iiii",
"iiii====****ffadiiii.....+++$$$$ffffifiiiiifffaiOOOO.XXX$$$$iiii",
"wwwwwwwwdddd00009>730888qqq9aaui>>>>0000e999iiii88888880iiii0000",
"89wwwwwwdddd000003:00898eeqqaaiu>>110000e999iiii8888888wiiii00ee",
"888wwwwwddff0000>>338999ee00aaau<<11e0009999iiii808800wwiiii9999",
"888ww8wwdddf0000300>9099e0e0uuau<<1100009999iiii888800weiiii9999",
"<<<<8888ffff<<1144553733>>>1iiiitt888888,,11ssii11<:000effss9999",
"<<<<8888ffff<<<144558:33>>11yiii9q888800,,11ssii1><<0800iffa9999",
"<<<<8888ffff<<<144553333>>,,yiii90888000,>>1ffff<<:<8000idaa9999",
"<<<:8888ffff22<<66553333111,iiii90888800,>>1fffi<<<<0000ddii9999",
"ssssiiii@@......yyyiiiiiffffyasiiiiiiiiiiiiiaaaassffiiiaiyyyaaaa",
"ssssiiii  ......uuufiiiiffiiyyiiiiiiiiiiiiiiaaayasiiiiiiyyyyaaua",
"ssssiidd ++.XX..uauuiiiifiifiiiiiiiiiiiiiiiiaaiyffifiiaayyyyiiyy",
"ssssiiid +++XX.Xuuuaiiiifiifiiiiiiaaiiiiiiifdaiyifffffaayyyyiyyy",
"7766ssdf8888tqqq8888yyyy00988888,,::iiii83339990iiiiq0tt0000030>",
"7766ssdd0888qq9q8888yyyy00908888,,::iiii33339099ifii00tq0000>303",
"4466aaad880000998888yyiy00008888<1:<iiaa33330000iiii000q0000:0>3",
"4466aadd880900008899yyii00008888<<<<aaaa33330000iiii0090000073:0",
"9999yyyy377774e<0009iiii9eww333388ewsasa00000000iiif44443344ee88",
"9999yaai35<e54e70000iiii9www333308wwssaa00000000iaif44447744ee88",
"9989yyii4446:w<70000iyyi99ww333300eeaaaa00000000iiff444473758988",
"99wwyyii444477:w0000auyy998w333800eeasss00000000iiss<04477338w08",
"****iiiiiiiiiiiiyyyyuyyyiaaaaaaaiiii++++.@  ppiiiiifaapi%*==****",
"**%%iiiiiiiiiiiiyyyyyyyuyaaaaaaadiiu++++ @  fiupiiffaapp====**%%",
"====iiiiiiiiiiiiyyyuiyuuiiaaaaaaddaa @+*@@+ofiiiiiffaass========",
"====iiiiiiiiiiiiyyyyyyuuiiauaaasddai @@+.%+oiiiiiiifssss========"
};
